<?xml version="1.0" encoding="utf-8"?>
<!-- Generator: Adobe Illustrator 25.4.1, SVG Export Plug-In . SVG Version: 6.00 Build 0)  -->
<svg version="1.1" id="Calque_1" xmlns="http://www.w3.org/2000/svg" xmlns:xlink="http://www.w3.org/1999/xlink" x="0px" y="0px"
	 viewBox="0 0 206.2 39.2" style="enable-background:new 0 0 206.2 39.2;" xml:space="preserve">
<style type="text/css">
	.st0{fill:#FFFFFF;}
</style>
<g>
	<path class="st0" d="M17.6,8.5v3.7h-0.2c-0.5-1.3-1.4-2.3-2.8-3.1c-1.3-0.7-2.9-1.1-4.7-1.1c-3.2,0-5.7,0.9-7.3,2.8
		C0.8,12.8,0,15.3,0,18.4c0,3.2,0.8,5.8,2.5,7.6s4.1,2.8,7.1,2.8c1.8,0,3.4-0.4,4.7-1.2s2.2-1.7,2.7-2.8h0.2v4.5
		c0,1.4-0.1,2.5-0.5,3.3c-0.3,0.8-0.9,1.3-1.6,1.7c-0.8,0.3-1.9,0.5-3.4,0.5c-1.5,0-2.7-0.1-3.5-0.4c-0.8-0.3-1.4-0.7-1.7-1.3
		C6.2,32.6,6,31.8,6,30.8H1.2c0,1.8,0.4,3.3,1.2,4.6s2,2.2,3.6,2.9c1.6,0.7,3.4,1,5.5,1c2.2,0,4.1-0.4,5.6-1.1s2.8-1.8,3.6-3.2
		c0.8-1.5,1.2-3.3,1.2-5.5V8.5H17.6z M16.4,22.3c-0.5,0.9-1.2,1.5-2.1,1.9c-0.9,0.4-2,0.6-3.2,0.6c-1,0-1.9-0.1-2.7-0.3
		s-1.4-0.6-1.9-1.1c-0.5-0.5-0.9-1.1-1.1-1.9c-0.2-0.8-0.4-1.8-0.4-3c0-1.5,0.2-2.7,0.6-3.6c0.4-0.9,1.1-1.6,2-2s2.1-0.6,3.5-0.6
		c1.2,0,2.3,0.2,3.3,0.6s1.7,1,2.2,1.8c0.5,0.8,0.8,1.9,0.8,3.1v1.5C17.2,20.4,16.9,21.5,16.4,22.3z"/>
	<path class="st0" d="M38.1,31.5c-2.3,0-4.3-0.5-6-1.5c-1.7-1-3-2.4-3.9-4.1c-0.9-1.8-1.4-3.8-1.4-6.1s0.5-4.4,1.4-6.1
		s2.2-3.1,3.9-4.1c1.7-1,3.7-1.5,6-1.5c2.3,0,4.3,0.5,5.9,1.5s2.9,2.4,3.8,4.1s1.4,3.8,1.4,6.1s-0.5,4.4-1.4,6.1
		C47,27.7,45.7,29.1,44,30C42.4,31,40.4,31.5,38.1,31.5z M38.1,27.2c2.4,0,4-0.6,5-1.8c0.9-1.2,1.4-3.1,1.4-5.6s-0.5-4.4-1.4-5.6
		c-0.9-1.2-2.6-1.8-5-1.8c-2.4,0-4,0.6-5,1.8c-0.9,1.2-1.4,3.1-1.4,5.6s0.5,4.4,1.4,5.6C34.1,26.6,35.7,27.2,38.1,27.2z"/>
	<path class="st0" d="M64.6,31.5c-2.3,0-4.3-0.5-6-1.5s-3-2.4-3.9-4.1c-0.9-1.8-1.4-3.8-1.4-6.1s0.5-4.4,1.4-6.1
		c0.9-1.8,2.2-3.1,3.9-4.1c1.7-1,3.7-1.5,6-1.5c2.3,0,4.3,0.5,5.9,1.5s2.9,2.4,3.8,4.1s1.4,3.8,1.4,6.1s-0.4,4.4-1.4,6.1
		c-0.9,1.8-2.2,3.1-3.8,4.1C68.8,31,66.9,31.5,64.6,31.5z M64.6,27.2c2.4,0,4-0.6,5-1.8c0.9-1.2,1.4-3.1,1.4-5.6s-0.5-4.4-1.4-5.6
		s-2.6-1.8-5-1.8s-4,0.6-5,1.8c-0.9,1.2-1.4,3.1-1.4,5.6s0.5,4.4,1.4,5.6C60.5,26.6,62.2,27.2,64.6,27.2z"/>
	<path class="st0" d="M96.9,0.7V12h-0.1c-0.5-1-1.3-1.9-2.6-2.7c-1.2-0.8-2.8-1.2-4.8-1.2c-3.1,0-5.5,1.1-7.2,3.2
		c-1.7,2.1-2.5,5-2.5,8.5s0.8,6.4,2.6,8.5s4.2,3.2,7.4,3.2c1.9,0,3.5-0.4,4.8-1.1c1.2-0.7,2.1-1.8,2.7-3.1h0.2v3.8h4.4V0.7H96.9z
		 M94.1,26.8c-0.9,0.4-2,0.6-3.4,0.6c-1.1,0-2-0.1-2.8-0.4c-0.8-0.3-1.4-0.7-1.9-1.3c-0.5-0.6-0.9-1.4-1.1-2.3
		c-0.2-1-0.3-2.1-0.3-3.5c0-1.4,0.1-2.6,0.3-3.5c0.2-1,0.6-1.7,1.1-2.3s1.1-1,1.9-1.3s1.7-0.4,2.8-0.4c1.3,0,2.4,0.2,3.4,0.6
		s1.6,1,2.1,1.8c0.5,0.8,0.7,1.9,0.7,3.1v4c0,1.2-0.2,2.3-0.7,3.1C95.7,25.7,95.1,26.4,94.1,26.8z"/>
	<path class="st0" d="M124.2,5.2c0.5-0.4,1.3-0.7,2.4-0.7h2.7V0.7c-0.3,0-0.6,0-0.9,0s-0.6,0-0.9,0c-1.9,0-3.5,0.3-4.8,0.9
		s-2.3,1.5-3,2.7c-0.6,1.2-0.9,2.6-1,4.2h-3.3v4.1h3.3v18.5h4.8V12.6h5.8V8.5h-5.9V7.3C123.4,6.3,123.7,5.6,124.2,5.2z"/>
	<path class="st0" d="M152.2,13.6c-0.9-1.8-2.2-3.1-3.8-4.1c-1.6-1-3.6-1.5-5.9-1.5s-4.3,0.5-6,1.5c-1.7,1-3,2.4-3.9,4.1
		c-0.9,1.8-1.4,3.8-1.4,6.1s0.5,4.4,1.4,6.1c0.9,1.8,2.2,3.1,3.9,4.1s3.7,1.5,6,1.5c2.3,0,4.3-0.5,5.9-1.5s2.9-2.4,3.8-4.1
		c0.9-1.8,1.4-3.8,1.4-6.1S153.1,15.4,152.2,13.6z M147.4,25.4c-0.9,1.2-2.6,1.8-5,1.8s-4.1-0.6-5-1.8s-1.4-3.1-1.4-5.6
		s0.5-4.4,1.4-5.6s2.6-1.8,5-1.8s4,0.6,5,1.8c0.9,1.2,1.4,3.1,1.4,5.6S148.3,24.2,147.4,25.4z"/>
	<path class="st0" d="M168.9,31.5c-2.3,0-4.3-0.5-6-1.5c-1.7-1-3-2.4-3.9-4.1c-0.9-1.8-1.4-3.8-1.4-6.1s0.5-4.4,1.4-6.1
		s2.2-3.1,3.9-4.1c1.7-1,3.7-1.5,6-1.5c2.3,0,4.3,0.5,5.9,1.5s2.9,2.4,3.8,4.1s1.4,3.8,1.4,6.1s-0.4,4.4-1.4,6.1
		c-0.9,1.8-2.2,3.1-3.8,4.1C173.2,31,171.2,31.5,168.9,31.5z M168.9,27.2c2.4,0,4-0.6,5-1.8c0.9-1.2,1.4-3.1,1.4-5.6
		s-0.5-4.4-1.4-5.6s-2.6-1.8-5-1.8s-4.1,0.6-5,1.8c-0.9,1.2-1.4,3.1-1.4,5.6s0.5,4.4,1.4,5.6S166.5,27.2,168.9,27.2z"/>
	<path class="st0" d="M201.3,0.7V12h-0.1c-0.5-1-1.3-1.9-2.6-2.7c-1.2-0.8-2.8-1.2-4.8-1.2c-3.1,0-5.5,1.1-7.2,3.2
		c-1.7,2.1-2.5,5-2.5,8.5s0.9,6.4,2.6,8.5c1.7,2.1,4.2,3.2,7.4,3.2c1.9,0,3.5-0.4,4.8-1.1c1.2-0.7,2.1-1.8,2.6-3.1h0.2v3.8h4.4V0.7
		H201.3z M198.5,26.8c-0.9,0.4-2,0.6-3.4,0.6c-1.1,0-2-0.1-2.8-0.4c-0.8-0.3-1.4-0.7-1.9-1.3s-0.9-1.4-1.1-2.3s-0.3-2.1-0.3-3.5
		c0-1.4,0.1-2.6,0.3-3.5c0.2-1,0.6-1.7,1.1-2.3s1.1-1,1.9-1.3s1.7-0.4,2.8-0.4c1.3,0,2.4,0.2,3.4,0.6s1.6,1,2.1,1.8
		c0.5,0.8,0.7,1.9,0.7,3.1v4c0,1.2-0.2,2.3-0.7,3.1C200.1,25.7,199.4,26.4,198.5,26.8z"/>
	<g>
		<path class="st0" d="M169.5,7.1c0.1,0.6,0,1.2,0,1.9h-1.4c0-2.8-0.1-5.4-2.2-7.5c-0.6-0.6,0-0.9,0.2-1.2c0.3-0.3,0.5,0,0.7,0.1
			c0.9,0.8,1.5,1.7,1.9,2.8c0.1,0.2,0.1,0.4,0.2,0.6c1.1-1.5,2.4-2.6,4-3.2c2.2-0.8,4.3-0.8,6.5,0c0.5,0.2,0.6,0.4,0.4,0.9
			c-1.6,4-5.9,6.2-9.9,5.2C169.6,6.6,169.5,6.6,169.5,7.1z"/>
	</g>
</g>
</svg>
