<?xml version="1.0" encoding="utf-8"?>
<!-- Generator: Adobe Illustrator 25.4.1, SVG Export Plug-In . SVG Version: 6.00 Build 0)  -->
<svg version="1.1" id="Calque_1" xmlns="http://www.w3.org/2000/svg" xmlns:xlink="http://www.w3.org/1999/xlink" x="0px" y="0px"
	 viewBox="0 0 206.16 55.64" style="enable-background:new 0 0 206.16 55.64;" xml:space="preserve">
<style type="text/css">
	.st0{fill:#E84230;}
	.st1{fill:#FFFFFF;}
</style>
<path class="st0" d="M961.33,758.51H711.07c-6.6,0-12-5.4-12-12v-73.8c0-6.6,5.4-12,12-12h250.25c6.6,0,12,5.4,12,12v73.8
	C973.33,753.11,967.93,758.51,961.33,758.51z"/>
<g>
	<g>
		<g>
			<path class="st1" d="M759.05,735.72c-0.66,0-1.24-0.15-1.72-0.46c-0.49-0.3-0.86-0.72-1.12-1.26c-0.26-0.54-0.39-1.15-0.39-1.83
				c0-0.7,0.13-1.31,0.39-1.84c0.26-0.53,0.63-0.95,1.12-1.26s1.05-0.46,1.72-0.46c0.58,0,1.09,0.12,1.52,0.35s0.78,0.55,1.02,0.95
				c0.24,0.4,0.37,0.88,0.37,1.42v0.11h-0.98v-0.1c0-0.6-0.16-1.05-0.49-1.37c-0.33-0.31-0.82-0.47-1.48-0.47
				c-0.78,0-1.34,0.23-1.69,0.71c-0.34,0.47-0.52,1.12-0.52,1.94c0,0.83,0.17,1.48,0.52,1.95s0.91,0.7,1.69,0.7
				c0.66,0,1.16-0.16,1.48-0.47c0.33-0.31,0.49-0.76,0.49-1.35v-0.07h0.98v0.08c0,0.53-0.12,0.99-0.36,1.41
				c-0.24,0.41-0.58,0.73-1.02,0.96S759.63,735.72,759.05,735.72z"/>
			<path class="st1" d="M765.81,735.71c-0.59,0-1.08-0.12-1.47-0.38c-0.39-0.25-0.68-0.59-0.86-1.02c-0.18-0.43-0.27-0.91-0.27-1.46
				v-4.1h0.98v3.96c0,0.74,0.16,1.27,0.47,1.61s0.8,0.51,1.46,0.51c0.41,0,0.78-0.08,1.1-0.24s0.57-0.41,0.75-0.74
				c0.17-0.33,0.26-0.76,0.26-1.3h0.3v1.5h-0.26c-0.1,0.26-0.25,0.51-0.45,0.77c-0.2,0.25-0.46,0.46-0.8,0.63
				C766.7,735.63,766.29,735.71,765.81,735.71z M769.23,735.57h-0.9v-2.18l-0.1-0.07v-4.57h0.99V735.57z"/>
			<path class="st1" d="M771.71,727.85h-0.98v-1.52h0.98V727.85z M771.71,735.57h-0.98v-6.9h0.98V735.57z"/>
			<path class="st1" d="M775.98,735.71c-0.93,0-1.64-0.2-2.13-0.59c-0.49-0.4-0.74-0.99-0.74-1.79v-0.03h0.95v0.17
				c0,0.31,0.06,0.57,0.17,0.78s0.3,0.37,0.58,0.48c0.28,0.11,0.67,0.17,1.19,0.17c0.42,0,0.75-0.04,0.98-0.12
				c0.23-0.08,0.39-0.2,0.48-0.36c0.09-0.16,0.14-0.35,0.14-0.58c0-0.36-0.11-0.61-0.34-0.77s-0.6-0.27-1.11-0.37L775,732.5
				c-0.37-0.07-0.69-0.18-0.98-0.32s-0.51-0.34-0.68-0.6c-0.17-0.26-0.25-0.59-0.25-0.99c0-0.59,0.23-1.06,0.7-1.42
				c0.46-0.36,1.1-0.54,1.9-0.54c0.54,0,1.01,0.09,1.41,0.26c0.4,0.17,0.72,0.43,0.95,0.78c0.23,0.34,0.35,0.77,0.35,1.29v0.07
				h-0.95v-0.12c0-0.27-0.05-0.51-0.14-0.72c-0.09-0.22-0.27-0.39-0.52-0.52c-0.26-0.13-0.62-0.19-1.09-0.19
				c-0.64,0-1.08,0.1-1.31,0.28c-0.23,0.19-0.34,0.46-0.34,0.82c0,0.34,0.1,0.59,0.3,0.74s0.56,0.28,1.06,0.38l1.16,0.21
				c0.4,0.08,0.75,0.2,1.04,0.35c0.29,0.15,0.52,0.35,0.68,0.6c0.16,0.25,0.24,0.56,0.24,0.93c0,0.62-0.23,1.09-0.68,1.43
				C777.39,735.54,776.77,735.71,775.98,735.71z"/>
			<path class="st1" d="M780.83,727.85h-0.98v-1.52h0.98V727.85z M780.83,735.57h-0.98v-6.9h0.98V735.57z"/>
			<path class="st1" d="M783.33,735.57h-0.99v-6.81h0.9v2.18l0.1,0.07V735.57z M788.27,735.57h-0.98v-3.97
				c0-0.74-0.14-1.27-0.42-1.61c-0.28-0.34-0.77-0.5-1.46-0.5c-0.45,0-0.83,0.07-1.13,0.22c-0.3,0.15-0.54,0.38-0.7,0.7
				c-0.17,0.32-0.25,0.73-0.25,1.23l-0.26,0.01l-0.04-1.49h0.26c0.08-0.24,0.23-0.47,0.43-0.71s0.47-0.43,0.8-0.59
				c0.33-0.16,0.72-0.24,1.19-0.24c0.59,0,1.07,0.12,1.44,0.35c0.37,0.24,0.65,0.56,0.83,0.97c0.18,0.41,0.28,0.9,0.28,1.45V735.57z
				"/>
			<path class="st1" d="M792.71,735.71c-0.71,0-1.3-0.15-1.78-0.46c-0.48-0.3-0.84-0.72-1.08-1.25s-0.36-1.15-0.36-1.84
				s0.13-1.3,0.39-1.83c0.26-0.53,0.62-0.95,1.1-1.26c0.47-0.31,1.04-0.46,1.69-0.46c0.55,0,1.05,0.11,1.51,0.32
				c0.46,0.22,0.82,0.55,1.08,0.99s0.4,1.01,0.4,1.69c0,0.16,0,0.31-0.01,0.46c-0.01,0.15-0.02,0.27-0.04,0.36h-5.59v-0.73h4.86
				l-0.17,0.18c0.05-0.58-0.01-1.04-0.17-1.4c-0.16-0.35-0.4-0.61-0.72-0.78c-0.32-0.16-0.71-0.25-1.17-0.25
				c-0.82,0-1.39,0.23-1.72,0.68s-0.5,1.07-0.5,1.86v0.25c0,0.53,0.07,0.99,0.22,1.38c0.15,0.39,0.38,0.68,0.7,0.89
				c0.32,0.21,0.77,0.31,1.35,0.31c0.68,0,1.17-0.14,1.47-0.42c0.3-0.28,0.45-0.62,0.45-1.03v-0.1h0.99v0.12
				c0,0.43-0.12,0.82-0.37,1.17s-0.59,0.62-1.03,0.83S793.28,735.71,792.71,735.71z M793.15,727.85h-1.01v-0.07l1.48-1.72h1.24v0.07
				L793.15,727.85z"/>
			<path class="st1" d="M800.54,737.97h-0.98v-9.21h0.88v1.77l0.1,0.18V737.97z M803.01,735.71c-0.65,0-1.19-0.14-1.61-0.43
				s-0.71-0.62-0.85-1h-0.3l0.04-1.52h0.26c0,0.46,0.09,0.85,0.26,1.16s0.43,0.55,0.76,0.7c0.33,0.16,0.72,0.24,1.16,0.24
				c0.33,0,0.63-0.04,0.9-0.12s0.5-0.22,0.68-0.43c0.19-0.2,0.33-0.48,0.43-0.83c0.1-0.35,0.15-0.79,0.15-1.3
				c0-0.52-0.05-0.96-0.15-1.3c-0.1-0.35-0.24-0.62-0.42-0.82c-0.18-0.2-0.41-0.35-0.67-0.44c-0.26-0.09-0.57-0.14-0.92-0.14
				c-0.44,0-0.83,0.08-1.16,0.25c-0.33,0.17-0.58,0.4-0.76,0.71s-0.26,0.69-0.26,1.15h-0.26l-0.04-1.5h0.25
				c0.16-0.42,0.43-0.77,0.83-1.04c0.4-0.27,0.93-0.41,1.58-0.41c0.95,0,1.68,0.32,2.2,0.97s0.78,1.51,0.78,2.57
				c0,1.08-0.25,1.94-0.74,2.58C804.65,735.39,803.94,735.71,803.01,735.71z"/>
			<path class="st1" d="M810.18,735.71c-0.66,0-1.24-0.15-1.74-0.46c-0.5-0.3-0.88-0.72-1.16-1.26c-0.28-0.54-0.41-1.15-0.41-1.83
				c0-0.7,0.14-1.31,0.41-1.84c0.28-0.53,0.66-0.95,1.16-1.25c0.5-0.3,1.08-0.46,1.74-0.46s1.24,0.15,1.72,0.46
				c0.49,0.3,0.86,0.72,1.13,1.25c0.27,0.53,0.4,1.14,0.4,1.84c0,0.68-0.13,1.29-0.4,1.83c-0.27,0.54-0.64,0.96-1.13,1.26
				C811.42,735.56,810.85,735.71,810.18,735.71z M810.18,734.81c0.83,0,1.42-0.23,1.77-0.69c0.35-0.46,0.52-1.11,0.52-1.96
				c0-0.85-0.17-1.51-0.52-1.97c-0.35-0.46-0.94-0.69-1.77-0.69c-0.82,0-1.41,0.23-1.77,0.69c-0.36,0.46-0.54,1.12-0.54,1.97
				c0,0.85,0.18,1.5,0.54,1.96C808.77,734.59,809.36,734.81,810.18,734.81z"/>
			<path class="st1" d="M817.29,735.71c-0.59,0-1.08-0.12-1.47-0.38c-0.39-0.25-0.68-0.59-0.86-1.02c-0.18-0.43-0.27-0.91-0.27-1.46
				v-4.1h0.98v3.96c0,0.74,0.16,1.27,0.47,1.61c0.31,0.34,0.8,0.51,1.46,0.51c0.41,0,0.78-0.08,1.1-0.24
				c0.32-0.16,0.57-0.41,0.74-0.74c0.17-0.33,0.26-0.76,0.26-1.3h0.3v1.5h-0.26c-0.1,0.26-0.25,0.51-0.45,0.77
				c-0.2,0.25-0.46,0.46-0.8,0.63C818.17,735.63,817.77,735.71,817.29,735.71z M820.71,735.57h-0.9v-2.18l-0.1-0.07v-4.57h0.99
				V735.57z"/>
			<path class="st1" d="M823.25,735.57h-0.99v-6.9h0.9v1.88l0.1,0.07V735.57z M823.25,731.06h-0.34v-1.25h0.32
				c0.11-0.31,0.33-0.59,0.65-0.83c0.32-0.24,0.74-0.36,1.24-0.36c0.47,0,0.85,0.1,1.14,0.3c0.29,0.2,0.5,0.47,0.62,0.79
				s0.19,0.69,0.19,1.1v0.37h-0.98v-0.23c0-0.53-0.1-0.91-0.3-1.13c-0.2-0.22-0.54-0.33-1.03-0.33c-0.53,0-0.92,0.12-1.15,0.37
				S823.25,730.51,823.25,731.06z"/>
			<path class="st1" d="M831.73,735.57h-0.99v-9.24h0.99V735.57z"/>
			<path class="st1" d="M836.23,735.71c-0.71,0-1.3-0.15-1.78-0.46c-0.48-0.3-0.84-0.72-1.08-1.25s-0.36-1.15-0.36-1.84
				s0.13-1.3,0.39-1.83c0.26-0.53,0.62-0.95,1.1-1.26c0.47-0.31,1.04-0.46,1.69-0.46c0.55,0,1.05,0.11,1.51,0.32
				c0.46,0.22,0.82,0.55,1.08,0.99s0.4,1.01,0.4,1.69c0,0.16,0,0.31-0.01,0.46c-0.01,0.15-0.02,0.27-0.04,0.36h-5.59v-0.73h4.86
				l-0.17,0.18c0.05-0.58-0.01-1.04-0.17-1.4c-0.16-0.35-0.4-0.61-0.72-0.78c-0.32-0.16-0.71-0.25-1.17-0.25
				c-0.82,0-1.39,0.23-1.72,0.68s-0.5,1.07-0.5,1.86v0.25c0,0.53,0.07,0.99,0.22,1.38c0.15,0.39,0.38,0.68,0.7,0.89
				c0.32,0.21,0.77,0.31,1.35,0.31c0.68,0,1.17-0.14,1.47-0.42c0.3-0.28,0.45-0.62,0.45-1.03v-0.1h0.99v0.12
				c0,0.43-0.12,0.82-0.37,1.17s-0.59,0.62-1.03,0.83S836.8,735.71,836.23,735.71z"/>
			<path class="st1" d="M843.27,735.71c-0.93,0-1.64-0.2-2.13-0.59c-0.49-0.4-0.74-0.99-0.74-1.79v-0.03h0.95v0.17
				c0,0.31,0.06,0.57,0.17,0.78s0.3,0.37,0.58,0.48c0.28,0.11,0.67,0.17,1.19,0.17c0.42,0,0.75-0.04,0.98-0.12
				c0.23-0.08,0.39-0.2,0.48-0.36c0.09-0.16,0.14-0.35,0.14-0.58c0-0.36-0.11-0.61-0.34-0.77s-0.6-0.27-1.11-0.37l-1.14-0.19
				c-0.37-0.07-0.69-0.18-0.98-0.32s-0.51-0.34-0.68-0.6c-0.17-0.26-0.25-0.59-0.25-0.99c0-0.59,0.23-1.06,0.7-1.42
				c0.46-0.36,1.1-0.54,1.9-0.54c0.54,0,1.01,0.09,1.41,0.26c0.4,0.17,0.72,0.43,0.95,0.78c0.23,0.34,0.35,0.77,0.35,1.29v0.07
				h-0.95v-0.12c0-0.27-0.05-0.51-0.14-0.72c-0.09-0.22-0.27-0.39-0.52-0.52c-0.26-0.13-0.62-0.19-1.09-0.19
				c-0.64,0-1.08,0.1-1.31,0.28c-0.23,0.19-0.34,0.46-0.34,0.82c0,0.34,0.1,0.59,0.3,0.74s0.56,0.28,1.06,0.38l1.16,0.21
				c0.4,0.08,0.75,0.2,1.04,0.35c0.29,0.15,0.52,0.35,0.68,0.6c0.16,0.25,0.24,0.56,0.24,0.93c0,0.62-0.23,1.09-0.68,1.43
				C844.69,735.54,844.06,735.71,843.27,735.71z"/>
			<path class="st1" d="M852.68,735.71c-0.71,0-1.3-0.15-1.78-0.46c-0.48-0.3-0.84-0.72-1.08-1.25s-0.36-1.15-0.36-1.84
				s0.13-1.3,0.39-1.83c0.26-0.53,0.62-0.95,1.1-1.26s1.04-0.46,1.69-0.46c0.55,0,1.06,0.11,1.51,0.32
				c0.46,0.22,0.82,0.55,1.08,0.99c0.27,0.45,0.4,1.01,0.4,1.69c0,0.16,0,0.31-0.01,0.46c-0.01,0.15-0.02,0.27-0.04,0.36h-5.59
				v-0.73h4.86l-0.17,0.18c0.05-0.58-0.01-1.04-0.17-1.4c-0.16-0.35-0.39-0.61-0.72-0.78c-0.32-0.16-0.71-0.25-1.17-0.25
				c-0.82,0-1.39,0.23-1.72,0.68s-0.5,1.07-0.5,1.86v0.25c0,0.53,0.07,0.99,0.22,1.38s0.38,0.68,0.7,0.89
				c0.32,0.21,0.77,0.31,1.35,0.31c0.68,0,1.17-0.14,1.47-0.42s0.45-0.62,0.45-1.03v-0.1h0.99v0.12c0,0.43-0.12,0.82-0.37,1.17
				c-0.25,0.35-0.59,0.62-1.03,0.83C853.76,735.61,853.25,735.71,852.68,735.71z"/>
			<path class="st1" d="M857.96,735.57h-0.99v-6.81h0.9v2.18l0.1,0.07V735.57z M862.9,735.57h-0.98v-3.97
				c0-0.74-0.14-1.27-0.42-1.61s-0.77-0.5-1.46-0.5c-0.45,0-0.83,0.07-1.13,0.22c-0.3,0.15-0.54,0.38-0.7,0.7
				c-0.17,0.32-0.25,0.73-0.25,1.23l-0.26,0.01l-0.04-1.49h0.26c0.08-0.24,0.23-0.47,0.43-0.71c0.21-0.23,0.47-0.43,0.8-0.59
				c0.33-0.16,0.72-0.24,1.19-0.24c0.59,0,1.07,0.12,1.44,0.35c0.37,0.24,0.65,0.56,0.83,0.97s0.28,0.9,0.28,1.45V735.57z"/>
			<path class="st1" d="M868.13,729.61h-4.3v-0.86h4.3V729.61z M866.97,735.57c-0.62,0-1.12-0.14-1.47-0.43
				c-0.35-0.29-0.53-0.79-0.53-1.5v-4.76l0.26-1.86h0.73v6.68c0,0.41,0.1,0.67,0.3,0.79c0.2,0.12,0.52,0.19,0.97,0.19h0.9v0.8
				c-0.12,0.02-0.28,0.04-0.48,0.06S867.22,735.57,866.97,735.57z"/>
			<path class="st1" d="M870.12,735.57h-0.99v-6.9h0.9v1.88l0.1,0.07V735.57z M870.12,731.06h-0.34v-1.25h0.32
				c0.11-0.31,0.33-0.59,0.65-0.83c0.32-0.24,0.74-0.36,1.24-0.36c0.47,0,0.85,0.1,1.14,0.3c0.29,0.2,0.5,0.47,0.62,0.79
				s0.19,0.69,0.19,1.1v0.37h-0.98v-0.23c0-0.53-0.1-0.91-0.3-1.13c-0.2-0.22-0.54-0.33-1.03-0.33c-0.53,0-0.92,0.12-1.15,0.37
				S870.12,730.51,870.12,731.06z"/>
			<path class="st1" d="M877.99,735.71c-0.71,0-1.3-0.15-1.78-0.46c-0.48-0.3-0.84-0.72-1.08-1.25c-0.24-0.53-0.36-1.15-0.36-1.84
				s0.13-1.3,0.39-1.83c0.26-0.53,0.62-0.95,1.1-1.26s1.04-0.46,1.69-0.46c0.55,0,1.06,0.11,1.51,0.32
				c0.46,0.22,0.82,0.55,1.08,0.99c0.27,0.45,0.4,1.01,0.4,1.69c0,0.16,0,0.31-0.01,0.46s-0.02,0.27-0.04,0.36h-5.59v-0.73h4.86
				l-0.17,0.18c0.05-0.58-0.01-1.04-0.17-1.4c-0.16-0.35-0.4-0.61-0.72-0.78c-0.32-0.16-0.71-0.25-1.17-0.25
				c-0.82,0-1.39,0.23-1.72,0.68s-0.5,1.07-0.5,1.86v0.25c0,0.53,0.07,0.99,0.22,1.38c0.15,0.39,0.38,0.68,0.7,0.89
				c0.32,0.21,0.77,0.31,1.35,0.31c0.68,0,1.17-0.14,1.47-0.42s0.45-0.62,0.45-1.03v-0.1h0.99v0.12c0,0.43-0.12,0.82-0.37,1.17
				c-0.25,0.35-0.59,0.62-1.03,0.83S878.56,735.71,877.99,735.71z"/>
			<path class="st1" d="M883.27,737.97h-0.98v-9.21h0.88v1.77l0.1,0.18V737.97z M885.74,735.71c-0.65,0-1.19-0.14-1.61-0.43
				c-0.42-0.29-0.71-0.62-0.86-1h-0.3l0.04-1.52h0.26c0,0.46,0.09,0.85,0.26,1.16s0.43,0.55,0.76,0.7c0.33,0.16,0.72,0.24,1.16,0.24
				c0.33,0,0.63-0.04,0.9-0.12c0.27-0.08,0.49-0.22,0.68-0.43c0.19-0.2,0.33-0.48,0.43-0.83s0.14-0.79,0.14-1.3
				c0-0.52-0.05-0.96-0.14-1.3s-0.24-0.62-0.42-0.82c-0.18-0.2-0.41-0.35-0.67-0.44s-0.57-0.14-0.92-0.14
				c-0.44,0-0.83,0.08-1.16,0.25c-0.33,0.17-0.58,0.4-0.76,0.71s-0.26,0.69-0.26,1.15h-0.26l-0.04-1.5h0.25
				c0.16-0.42,0.43-0.77,0.83-1.04s0.93-0.41,1.58-0.41c0.95,0,1.68,0.32,2.2,0.97s0.78,1.51,0.78,2.57c0,1.08-0.25,1.94-0.74,2.58
				C887.38,735.39,886.67,735.71,885.74,735.71z"/>
			<path class="st1" d="M890.87,735.57h-0.99v-6.9h0.9v1.88l0.1,0.07V735.57z M890.87,731.06h-0.34v-1.25h0.32
				c0.11-0.31,0.33-0.59,0.65-0.83c0.32-0.24,0.74-0.36,1.24-0.36c0.47,0,0.85,0.1,1.14,0.3c0.29,0.2,0.5,0.47,0.62,0.79
				s0.19,0.69,0.19,1.1v0.37h-0.98v-0.23c0-0.53-0.1-0.91-0.3-1.13c-0.2-0.22-0.54-0.33-1.03-0.33c-0.53,0-0.92,0.12-1.15,0.37
				S890.87,730.51,890.87,731.06z"/>
			<path class="st1" d="M896.75,727.85h-0.98v-1.52h0.98V727.85z M896.75,735.57h-0.98v-6.9h0.98V735.57z"/>
			<path class="st1" d="M901.01,735.71c-0.93,0-1.64-0.2-2.13-0.59c-0.49-0.4-0.74-0.99-0.74-1.79v-0.03h0.95v0.17
				c0,0.31,0.05,0.57,0.17,0.78s0.3,0.37,0.58,0.48c0.28,0.11,0.67,0.17,1.19,0.17c0.42,0,0.75-0.04,0.98-0.12
				c0.23-0.08,0.39-0.2,0.48-0.36c0.09-0.16,0.14-0.35,0.14-0.58c0-0.36-0.11-0.61-0.34-0.77c-0.22-0.15-0.59-0.27-1.11-0.37
				l-1.14-0.19c-0.37-0.07-0.69-0.18-0.98-0.32s-0.51-0.34-0.68-0.6c-0.17-0.26-0.25-0.59-0.25-0.99c0-0.59,0.23-1.06,0.7-1.42
				c0.46-0.36,1.1-0.54,1.9-0.54c0.54,0,1.01,0.09,1.41,0.26c0.4,0.17,0.72,0.43,0.95,0.78c0.23,0.34,0.35,0.77,0.35,1.29v0.07
				h-0.95v-0.12c0-0.27-0.05-0.51-0.14-0.72s-0.27-0.39-0.52-0.52s-0.62-0.19-1.09-0.19c-0.64,0-1.08,0.1-1.31,0.28
				c-0.23,0.19-0.35,0.46-0.35,0.82c0,0.34,0.1,0.59,0.3,0.74s0.56,0.28,1.06,0.38l1.16,0.21c0.4,0.08,0.75,0.2,1.04,0.35
				c0.29,0.15,0.51,0.35,0.68,0.6c0.16,0.25,0.24,0.56,0.24,0.93c0,0.62-0.23,1.09-0.68,1.43S901.8,735.71,901.01,735.71z"/>
			<path class="st1" d="M907.87,735.71c-0.71,0-1.3-0.15-1.78-0.46c-0.48-0.3-0.84-0.72-1.08-1.25c-0.24-0.53-0.36-1.15-0.36-1.84
				s0.13-1.3,0.39-1.83c0.26-0.53,0.62-0.95,1.1-1.26s1.04-0.46,1.69-0.46c0.55,0,1.06,0.11,1.51,0.32
				c0.46,0.22,0.82,0.55,1.08,0.99c0.27,0.45,0.4,1.01,0.4,1.69c0,0.16,0,0.31-0.01,0.46s-0.02,0.27-0.04,0.36h-5.59v-0.73h4.86
				l-0.17,0.18c0.05-0.58-0.01-1.04-0.17-1.4c-0.16-0.35-0.4-0.61-0.72-0.78c-0.32-0.16-0.71-0.25-1.17-0.25
				c-0.82,0-1.39,0.23-1.72,0.68s-0.5,1.07-0.5,1.86v0.25c0,0.53,0.07,0.99,0.22,1.38c0.15,0.39,0.38,0.68,0.7,0.89
				c0.32,0.21,0.77,0.31,1.35,0.31c0.68,0,1.17-0.14,1.47-0.42s0.45-0.62,0.45-1.03v-0.1h0.99v0.12c0,0.43-0.12,0.82-0.37,1.17
				c-0.25,0.35-0.59,0.62-1.03,0.83S908.44,735.71,907.87,735.71z"/>
			<path class="st1" d="M914.92,735.71c-0.93,0-1.64-0.2-2.13-0.59c-0.49-0.4-0.74-0.99-0.74-1.79v-0.03H913v0.17
				c0,0.31,0.05,0.57,0.17,0.78s0.3,0.37,0.58,0.48c0.28,0.11,0.67,0.17,1.19,0.17c0.42,0,0.75-0.04,0.98-0.12
				c0.23-0.08,0.39-0.2,0.48-0.36c0.09-0.16,0.14-0.35,0.14-0.58c0-0.36-0.11-0.61-0.34-0.77c-0.22-0.15-0.59-0.27-1.11-0.37
				l-1.14-0.19c-0.37-0.07-0.69-0.18-0.98-0.32s-0.51-0.34-0.68-0.6c-0.17-0.26-0.25-0.59-0.25-0.99c0-0.59,0.23-1.06,0.7-1.42
				c0.46-0.36,1.1-0.54,1.9-0.54c0.54,0,1.01,0.09,1.41,0.26c0.4,0.17,0.72,0.43,0.95,0.78c0.23,0.34,0.35,0.77,0.35,1.29v0.07
				h-0.95v-0.12c0-0.27-0.05-0.51-0.14-0.72s-0.27-0.39-0.52-0.52s-0.62-0.19-1.09-0.19c-0.64,0-1.08,0.1-1.31,0.28
				c-0.23,0.19-0.35,0.46-0.35,0.82c0,0.34,0.1,0.59,0.3,0.74s0.56,0.28,1.06,0.38l1.16,0.21c0.4,0.08,0.75,0.2,1.04,0.35
				c0.29,0.15,0.51,0.35,0.68,0.6c0.16,0.25,0.24,0.56,0.24,0.93c0,0.62-0.23,1.09-0.68,1.43S915.71,735.71,914.92,735.71z"/>
		</g>
	</g>
	<g>
		<path class="st1" d="M750.72,690.85v3.72h-0.23c-0.51-1.3-1.44-2.32-2.77-3.06c-1.33-0.74-2.9-1.11-4.72-1.11
			c-3.21,0-5.66,0.95-7.35,2.83c-1.69,1.89-2.54,4.41-2.54,7.55c0,3.21,0.84,5.75,2.52,7.64s4.06,2.83,7.14,2.83
			c1.84,0,3.4-0.39,4.67-1.18c1.27-0.79,2.16-1.72,2.68-2.81h0.18v4.49c0,1.39-0.15,2.48-0.45,3.27c-0.3,0.79-0.85,1.34-1.63,1.68
			c-0.79,0.33-1.92,0.5-3.4,0.5c-1.51,0-2.68-0.13-3.49-0.38c-0.82-0.26-1.38-0.69-1.7-1.29c-0.32-0.61-0.48-1.41-0.48-2.4h-4.85
			c0,1.78,0.42,3.31,1.25,4.58c0.83,1.27,2.03,2.23,3.61,2.88c1.57,0.65,3.42,0.97,5.53,0.97c2.18,0,4.05-0.36,5.62-1.07
			c1.57-0.71,2.77-1.79,3.61-3.24c0.83-1.45,1.25-3.28,1.25-5.49v-20.91H750.72z M749.56,704.64c-0.5,0.85-1.21,1.47-2.13,1.86
			c-0.92,0.39-2,0.59-3.24,0.59c-1.03,0-1.94-0.11-2.74-0.34c-0.8-0.23-1.45-0.58-1.95-1.07c-0.5-0.48-0.87-1.12-1.11-1.91
			c-0.24-0.79-0.36-1.78-0.36-2.99c0-1.51,0.21-2.73,0.64-3.65c0.42-0.92,1.08-1.59,1.97-2c0.89-0.41,2.05-0.61,3.47-0.61
			c1.24,0,2.33,0.2,3.27,0.61c0.94,0.41,1.66,1.02,2.18,1.84c0.51,0.82,0.77,1.86,0.77,3.13v1.45
			C750.31,702.77,750.06,703.79,749.56,704.64z"/>
		<path class="st1" d="M771.27,713.85c-2.3,0-4.29-0.49-5.96-1.47s-2.98-2.36-3.9-4.13c-0.92-1.77-1.38-3.82-1.38-6.15
			c0-2.33,0.46-4.37,1.38-6.12c0.92-1.75,2.22-3.12,3.9-4.11c1.68-0.98,3.67-1.47,5.96-1.47c2.3,0,4.27,0.49,5.92,1.47
			c1.65,0.98,2.93,2.35,3.83,4.11s1.36,3.79,1.36,6.12c0,2.33-0.45,4.38-1.36,6.15c-0.91,1.77-2.19,3.15-3.83,4.13
			C775.54,713.36,773.57,713.85,771.27,713.85z M771.27,709.49c2.39,0,4.04-0.6,4.97-1.79c0.92-1.19,1.38-3.06,1.38-5.6
			s-0.46-4.41-1.38-5.6c-0.92-1.19-2.58-1.79-4.97-1.79c-2.39,0-4.05,0.6-4.99,1.79c-0.94,1.2-1.41,3.06-1.41,5.6
			s0.47,4.41,1.41,5.6C767.22,708.9,768.88,709.49,771.27,709.49z"/>
		<path class="st1" d="M797.71,713.85c-2.3,0-4.29-0.49-5.96-1.47s-2.98-2.36-3.9-4.13c-0.92-1.77-1.38-3.82-1.38-6.15
			c0-2.33,0.46-4.37,1.38-6.12c0.92-1.75,2.22-3.12,3.9-4.11c1.68-0.98,3.67-1.47,5.96-1.47c2.3,0,4.27,0.49,5.92,1.47
			c1.65,0.98,2.93,2.35,3.83,4.11s1.36,3.79,1.36,6.12c0,2.33-0.45,4.38-1.36,6.15c-0.91,1.77-2.19,3.15-3.83,4.13
			C801.98,713.36,800.01,713.85,797.71,713.85z M797.71,709.49c2.39,0,4.04-0.6,4.97-1.79c0.92-1.19,1.38-3.06,1.38-5.6
			s-0.46-4.41-1.38-5.6c-0.92-1.19-2.58-1.79-4.97-1.79c-2.39,0-4.05,0.6-4.99,1.79c-0.94,1.2-1.41,3.06-1.41,5.6
			s0.47,4.41,1.41,5.6C793.66,708.9,795.32,709.49,797.71,709.49z"/>
		<path class="st1" d="M830.1,683v11.34h-0.14c-0.48-1.03-1.34-1.94-2.56-2.74c-1.23-0.8-2.83-1.2-4.83-1.2
			c-3.11,0-5.5,1.06-7.17,3.17c-1.66,2.12-2.49,4.96-2.49,8.53c0,3.57,0.85,6.42,2.56,8.55c1.71,2.13,4.17,3.2,7.37,3.2
			c1.93,0,3.53-0.37,4.79-1.11c1.25-0.74,2.14-1.78,2.65-3.11h0.23v3.76h4.45V683H830.1z M827.29,709.08
			c-0.91,0.39-2.03,0.59-3.36,0.59c-1.06,0-1.98-0.14-2.77-0.41c-0.79-0.27-1.43-0.7-1.93-1.29c-0.5-0.59-0.86-1.37-1.09-2.34
			c-0.23-0.97-0.34-2.15-0.34-3.54c0-1.39,0.11-2.57,0.34-3.54c0.23-0.97,0.59-1.74,1.09-2.31c0.5-0.57,1.14-1,1.93-1.27
			c0.79-0.27,1.71-0.41,2.77-0.41c1.33,0,2.45,0.2,3.36,0.59c0.91,0.39,1.6,1,2.09,1.81c0.48,0.82,0.73,1.86,0.73,3.13v4.04
			c0,1.24-0.24,2.28-0.73,3.11C828.89,708.08,828.19,708.69,827.29,709.08z"/>
		<path class="st1" d="M857.31,687.52c0.51-0.44,1.32-0.66,2.4-0.66h2.72V683c-0.3,0-0.6,0-0.91,0s-0.6,0-0.91,0
			c-1.9,0-3.52,0.3-4.85,0.91c-1.33,0.61-2.32,1.5-2.97,2.7c-0.63,1.15-0.94,2.57-0.97,4.24h-3.32v4.08h3.31v18.46h4.85v-18.46h5.76
			v-4.08h-5.9v-1.22C856.54,688.66,856.8,687.96,857.31,687.52z"/>
		<path class="st1" d="M885.34,695.98c-0.91-1.75-2.19-3.12-3.83-4.11c-1.65-0.98-3.62-1.47-5.92-1.47c-2.3,0-4.29,0.49-5.96,1.47
			c-1.68,0.98-2.98,2.35-3.9,4.11c-0.92,1.75-1.38,3.79-1.38,6.12c0,2.33,0.46,4.38,1.38,6.15c0.92,1.77,2.22,3.15,3.9,4.13
			c1.68,0.98,3.67,1.47,5.96,1.47c2.3,0,4.27-0.49,5.92-1.47c1.65-0.98,2.93-2.36,3.83-4.13c0.91-1.77,1.36-3.82,1.36-6.15
			C886.71,699.77,886.25,697.73,885.34,695.98z M880.56,707.7c-0.92,1.19-2.58,1.79-4.97,1.79c-2.39,0-4.05-0.6-4.99-1.79
			s-1.41-3.06-1.41-5.6s0.47-4.41,1.41-5.6c0.94-1.19,2.6-1.79,4.99-1.79c2.39,0,4.04,0.6,4.97,1.79c0.92,1.2,1.38,3.06,1.38,5.6
			S881.48,706.51,880.56,707.7z"/>
		<path class="st1" d="M902.04,713.85c-2.3,0-4.29-0.49-5.96-1.47c-1.68-0.98-2.98-2.36-3.9-4.13c-0.92-1.77-1.38-3.82-1.38-6.15
			c0-2.33,0.46-4.37,1.38-6.12c0.92-1.75,2.22-3.12,3.9-4.11c1.68-0.98,3.67-1.47,5.96-1.47c2.3,0,4.27,0.49,5.92,1.47
			c1.65,0.98,2.93,2.35,3.83,4.11s1.36,3.79,1.36,6.12c0,2.33-0.45,4.38-1.36,6.15c-0.91,1.77-2.19,3.15-3.83,4.13
			C906.31,713.36,904.33,713.85,902.04,713.85z M902.04,709.49c2.39,0,4.04-0.6,4.97-1.79c0.92-1.19,1.38-3.06,1.38-5.6
			s-0.46-4.41-1.38-5.6c-0.92-1.19-2.58-1.79-4.97-1.79c-2.39,0-4.05,0.6-4.99,1.79c-0.94,1.2-1.41,3.06-1.41,5.6
			s0.47,4.41,1.41,5.6S899.65,709.49,902.04,709.49z"/>
		<path class="st1" d="M934.42,683v11.34h-0.14c-0.48-1.03-1.34-1.94-2.56-2.74c-1.23-0.8-2.83-1.2-4.83-1.2
			c-3.12,0-5.5,1.06-7.17,3.17c-1.66,2.12-2.49,4.96-2.49,8.53c0,3.57,0.85,6.42,2.56,8.55c1.71,2.13,4.17,3.2,7.37,3.2
			c1.93,0,3.53-0.37,4.79-1.11c1.25-0.74,2.14-1.78,2.65-3.11h0.23v3.76h4.45V683H934.42z M931.61,709.08
			c-0.91,0.39-2.03,0.59-3.36,0.59c-1.06,0-1.98-0.14-2.77-0.41c-0.79-0.27-1.43-0.7-1.93-1.29s-0.86-1.37-1.09-2.34
			c-0.23-0.97-0.34-2.15-0.34-3.54c0-1.39,0.11-2.57,0.34-3.54c0.23-0.97,0.59-1.74,1.09-2.31s1.14-1,1.93-1.27
			c0.79-0.27,1.71-0.41,2.77-0.41c1.33,0,2.45,0.2,3.36,0.59c0.91,0.39,1.6,1,2.09,1.81c0.48,0.82,0.73,1.86,0.73,3.13v4.04
			c0,1.24-0.24,2.28-0.73,3.11C933.21,708.08,932.52,708.69,931.61,709.08z"/>
		<g>
			<path class="st1" d="M902.65,689.44c0.05,0.59,0.01,1.18,0.01,1.93h-1.4c0.02-2.83-0.11-5.45-2.2-7.52
				c-0.56-0.55-0.02-0.95,0.25-1.23c0.31-0.31,0.49-0.04,0.66,0.13c0.85,0.82,1.46,1.74,1.91,2.81c0.08,0.18,0.15,0.37,0.25,0.61
				c1.09-1.46,2.36-2.6,4.04-3.24c2.18-0.84,4.34-0.79,6.52,0.02c0.52,0.2,0.55,0.39,0.35,0.87c-1.64,3.96-5.89,6.16-9.87,5.2
				C902.79,688.93,902.61,688.98,902.65,689.44z"/>
		</g>
	</g>
</g>
<g>
	<g>
		<path class="st1" d="M25.96,53.4c-0.66,0-1.24-0.15-1.72-0.46c-0.49-0.3-0.86-0.72-1.12-1.26c-0.26-0.54-0.39-1.15-0.39-1.83
			c0-0.7,0.13-1.31,0.39-1.84c0.26-0.53,0.63-0.95,1.12-1.26c0.48-0.31,1.06-0.46,1.72-0.46c0.58,0,1.09,0.12,1.52,0.34
			c0.44,0.23,0.78,0.55,1.02,0.95s0.37,0.88,0.37,1.42v0.11h-0.98v-0.1c0-0.6-0.16-1.05-0.49-1.37c-0.33-0.31-0.82-0.47-1.48-0.47
			c-0.78,0-1.34,0.23-1.69,0.7c-0.34,0.47-0.52,1.12-0.52,1.94c0,0.83,0.17,1.48,0.52,1.95s0.91,0.7,1.69,0.7
			c0.66,0,1.16-0.16,1.48-0.47c0.33-0.31,0.49-0.76,0.49-1.35V50.6h0.98v0.08c0,0.52-0.12,0.99-0.36,1.41
			c-0.24,0.41-0.58,0.74-1.02,0.96C27.05,53.28,26.54,53.4,25.96,53.4z"/>
		<path class="st1" d="M32.65,53.38c-0.59,0-1.08-0.13-1.47-0.38c-0.39-0.25-0.68-0.59-0.86-1.02c-0.18-0.43-0.27-0.91-0.27-1.46
			v-4.1h0.98v3.96c0,0.74,0.16,1.27,0.47,1.61c0.31,0.34,0.8,0.51,1.46,0.51c0.41,0,0.78-0.08,1.1-0.24
			c0.32-0.16,0.57-0.41,0.74-0.74s0.26-0.76,0.26-1.3h0.3v1.5h-0.26c-0.1,0.26-0.25,0.51-0.45,0.77s-0.46,0.46-0.8,0.63
			C33.53,53.3,33.12,53.38,32.65,53.38z M36.07,53.24h-0.9v-2.18L35.07,51v-4.57h0.99V53.24z"/>
		<path class="st1" d="M38.55,45.52h-0.98V44h0.98V45.52z M38.55,53.24h-0.98v-6.9h0.98V53.24z"/>
		<path class="st1" d="M42.77,53.38c-0.93,0-1.64-0.2-2.13-0.59c-0.49-0.4-0.74-0.99-0.74-1.79v-0.03h0.95v0.17
			c0,0.31,0.06,0.57,0.17,0.78s0.3,0.37,0.58,0.48s0.67,0.17,1.19,0.17c0.42,0,0.75-0.04,0.98-0.12c0.23-0.08,0.39-0.2,0.48-0.36
			c0.09-0.16,0.14-0.35,0.14-0.58c0-0.36-0.11-0.61-0.34-0.77c-0.23-0.15-0.6-0.27-1.11-0.37l-1.15-0.19
			c-0.37-0.07-0.69-0.18-0.98-0.32s-0.51-0.34-0.68-0.6s-0.25-0.59-0.25-0.99c0-0.59,0.23-1.06,0.7-1.42s1.1-0.54,1.9-0.54
			c0.54,0,1.01,0.09,1.41,0.26s0.72,0.43,0.95,0.78s0.35,0.77,0.35,1.29v0.07h-0.95v-0.12c0-0.27-0.05-0.51-0.14-0.72
			c-0.09-0.22-0.27-0.39-0.52-0.52s-0.62-0.19-1.09-0.19c-0.64,0-1.08,0.09-1.31,0.28c-0.23,0.19-0.34,0.46-0.34,0.82
			c0,0.34,0.1,0.59,0.3,0.74c0.2,0.15,0.56,0.28,1.06,0.38l1.16,0.21c0.4,0.08,0.75,0.2,1.04,0.34s0.52,0.35,0.68,0.6
			c0.16,0.25,0.24,0.56,0.24,0.93c0,0.62-0.23,1.09-0.68,1.43C44.18,53.21,43.56,53.38,42.77,53.38z"/>
		<path class="st1" d="M47.58,45.52h-0.98V44h0.98V45.52z M47.58,53.24h-0.98v-6.9h0.98V53.24z"/>
		<path class="st1" d="M50.08,53.24h-0.99v-6.81h0.9v2.18l0.1,0.07V53.24z M55.02,53.24h-0.98v-3.97c0-0.74-0.14-1.27-0.42-1.61
			c-0.28-0.34-0.77-0.5-1.46-0.5c-0.45,0-0.83,0.07-1.13,0.22c-0.3,0.15-0.54,0.38-0.7,0.7c-0.17,0.32-0.25,0.73-0.25,1.24
			l-0.26,0.01l-0.04-1.49h0.26c0.08-0.24,0.23-0.48,0.43-0.71s0.47-0.43,0.8-0.59c0.33-0.16,0.72-0.24,1.19-0.24
			c0.59,0,1.07,0.12,1.44,0.35c0.37,0.24,0.65,0.56,0.83,0.97s0.28,0.9,0.28,1.45V53.24z"/>
		<path class="st1" d="M59.43,53.38c-0.71,0-1.3-0.15-1.78-0.46c-0.48-0.3-0.84-0.72-1.08-1.25s-0.36-1.15-0.36-1.83
			s0.13-1.3,0.39-1.83c0.26-0.53,0.62-0.95,1.1-1.26c0.47-0.31,1.04-0.46,1.69-0.46c0.55,0,1.06,0.11,1.51,0.32
			c0.46,0.22,0.82,0.55,1.08,0.99c0.27,0.45,0.4,1.01,0.4,1.69c0,0.16,0,0.31-0.01,0.46c-0.01,0.15-0.02,0.27-0.04,0.36h-5.59v-0.73
			h4.86l-0.17,0.18c0.05-0.58-0.01-1.05-0.17-1.4c-0.16-0.35-0.4-0.61-0.72-0.78c-0.32-0.17-0.71-0.25-1.17-0.25
			c-0.82,0-1.39,0.23-1.72,0.68s-0.5,1.07-0.5,1.86v0.25c0,0.53,0.07,0.99,0.22,1.38c0.15,0.39,0.38,0.68,0.7,0.89
			c0.32,0.21,0.77,0.31,1.35,0.31c0.68,0,1.17-0.14,1.47-0.42c0.3-0.28,0.45-0.62,0.45-1.03v-0.1h0.99v0.12
			c0,0.43-0.12,0.82-0.37,1.17c-0.25,0.35-0.59,0.62-1.03,0.83C60.51,53.28,60,53.38,59.43,53.38z M59.87,45.52h-1.01v-0.07
			l1.48-1.72h1.24v0.07L59.87,45.52z"/>
		<path class="st1" d="M67.27,55.64h-0.98v-9.21h0.88v1.77l0.1,0.18V55.64z M69.74,53.38c-0.65,0-1.19-0.14-1.61-0.43
			c-0.42-0.29-0.71-0.62-0.85-1h-0.3L67,50.43h0.26c0,0.46,0.09,0.85,0.26,1.16c0.17,0.31,0.43,0.55,0.76,0.7
			c0.33,0.16,0.72,0.24,1.16,0.24c0.33,0,0.63-0.04,0.9-0.12c0.27-0.08,0.49-0.22,0.68-0.43s0.33-0.48,0.43-0.83
			c0.1-0.35,0.15-0.79,0.15-1.3c0-0.52-0.05-0.96-0.15-1.3c-0.1-0.34-0.24-0.62-0.42-0.82c-0.18-0.2-0.41-0.35-0.67-0.44
			s-0.57-0.14-0.92-0.14c-0.44,0-0.83,0.08-1.16,0.25c-0.33,0.17-0.58,0.4-0.76,0.71c-0.17,0.31-0.26,0.69-0.26,1.15H67l-0.04-1.5
			h0.25c0.16-0.42,0.43-0.77,0.83-1.04s0.93-0.41,1.58-0.41c0.95,0,1.68,0.32,2.2,0.97s0.78,1.51,0.78,2.57
			c0,1.08-0.25,1.94-0.74,2.58C71.38,53.06,70.66,53.38,69.74,53.38z"/>
		<path class="st1" d="M76.91,53.38c-0.66,0-1.24-0.15-1.74-0.46s-0.88-0.72-1.16-1.26s-0.41-1.15-0.41-1.83
			c0-0.7,0.14-1.31,0.41-1.84c0.28-0.53,0.66-0.95,1.16-1.25c0.5-0.3,1.08-0.46,1.74-0.46s1.24,0.15,1.72,0.46
			c0.49,0.3,0.86,0.72,1.13,1.25c0.27,0.53,0.4,1.14,0.4,1.84c0,0.68-0.13,1.29-0.4,1.83s-0.64,0.96-1.13,1.26
			C78.15,53.23,77.57,53.38,76.91,53.38z M76.91,52.49c0.83,0,1.42-0.23,1.77-0.69c0.35-0.46,0.52-1.11,0.52-1.96
			c0-0.85-0.17-1.51-0.52-1.97c-0.35-0.46-0.94-0.69-1.77-0.69c-0.82,0-1.41,0.23-1.77,0.69c-0.36,0.46-0.54,1.12-0.54,1.97
			c0,0.85,0.18,1.5,0.54,1.96C75.5,52.26,76.09,52.49,76.91,52.49z"/>
		<path class="st1" d="M83.94,53.38c-0.59,0-1.08-0.13-1.47-0.38c-0.39-0.25-0.68-0.59-0.86-1.02c-0.18-0.43-0.27-0.91-0.27-1.46
			v-4.1h0.98v3.96c0,0.74,0.16,1.27,0.47,1.61c0.31,0.34,0.8,0.51,1.46,0.51c0.41,0,0.78-0.08,1.1-0.24
			c0.32-0.16,0.57-0.41,0.74-0.74s0.26-0.76,0.26-1.3h0.3v1.5h-0.26c-0.1,0.26-0.25,0.51-0.45,0.77s-0.46,0.46-0.8,0.63
			C84.83,53.3,84.42,53.38,83.94,53.38z M87.36,53.24h-0.9v-2.18L86.37,51v-4.57h0.99V53.24z"/>
		<path class="st1" d="M89.9,53.24h-0.99v-6.9h0.9v1.88l0.1,0.07V53.24z M89.9,48.73h-0.34v-1.25h0.32
			c0.11-0.31,0.33-0.59,0.65-0.83c0.32-0.24,0.74-0.36,1.24-0.36c0.47,0,0.85,0.1,1.14,0.3s0.5,0.47,0.62,0.79s0.19,0.69,0.19,1.1
			v0.37h-0.98v-0.23c0-0.53-0.1-0.91-0.3-1.13c-0.2-0.22-0.54-0.33-1.03-0.33c-0.53,0-0.92,0.12-1.15,0.37
			C90.02,47.78,89.9,48.18,89.9,48.73z"/>
		<path class="st1" d="M98.38,53.24h-0.99V44h0.99V53.24z"/>
		<path class="st1" d="M102.83,53.38c-0.71,0-1.3-0.15-1.78-0.46c-0.48-0.3-0.84-0.72-1.08-1.25s-0.36-1.15-0.36-1.83
			s0.13-1.3,0.39-1.83c0.26-0.53,0.62-0.95,1.1-1.26c0.47-0.31,1.04-0.46,1.69-0.46c0.55,0,1.06,0.11,1.51,0.32
			c0.46,0.22,0.82,0.55,1.08,0.99c0.27,0.45,0.4,1.01,0.4,1.69c0,0.16,0,0.31-0.01,0.46c-0.01,0.15-0.02,0.27-0.04,0.36h-5.59v-0.73
			h4.86l-0.17,0.18c0.05-0.58-0.01-1.05-0.17-1.4c-0.16-0.35-0.4-0.61-0.72-0.78c-0.32-0.17-0.71-0.25-1.17-0.25
			c-0.82,0-1.39,0.23-1.72,0.68s-0.5,1.07-0.5,1.86v0.25c0,0.53,0.07,0.99,0.22,1.38c0.15,0.39,0.38,0.68,0.7,0.89
			c0.32,0.21,0.77,0.31,1.35,0.31c0.68,0,1.17-0.14,1.47-0.42c0.3-0.28,0.45-0.62,0.45-1.03v-0.1h0.99v0.12
			c0,0.43-0.12,0.82-0.37,1.17c-0.25,0.35-0.59,0.62-1.03,0.83C103.9,53.28,103.4,53.38,102.83,53.38z"/>
		<path class="st1" d="M109.87,53.38c-0.93,0-1.64-0.2-2.13-0.59c-0.49-0.4-0.74-0.99-0.74-1.79v-0.03h0.95v0.17
			c0,0.31,0.06,0.57,0.17,0.78s0.3,0.37,0.58,0.48s0.67,0.17,1.19,0.17c0.42,0,0.75-0.04,0.98-0.12c0.23-0.08,0.39-0.2,0.48-0.36
			c0.09-0.16,0.14-0.35,0.14-0.58c0-0.36-0.11-0.61-0.34-0.77c-0.23-0.15-0.6-0.27-1.11-0.37l-1.15-0.19
			c-0.37-0.07-0.69-0.18-0.98-0.32s-0.51-0.34-0.68-0.6s-0.25-0.59-0.25-0.99c0-0.59,0.23-1.06,0.7-1.42s1.1-0.54,1.9-0.54
			c0.54,0,1.01,0.09,1.41,0.26s0.72,0.43,0.95,0.78s0.35,0.77,0.35,1.29v0.07h-0.95v-0.12c0-0.27-0.05-0.51-0.14-0.72
			c-0.09-0.22-0.27-0.39-0.52-0.52s-0.62-0.19-1.09-0.19c-0.64,0-1.08,0.09-1.31,0.28c-0.23,0.19-0.34,0.46-0.34,0.82
			c0,0.34,0.1,0.59,0.3,0.74c0.2,0.15,0.56,0.28,1.06,0.38l1.16,0.21c0.4,0.08,0.75,0.2,1.04,0.34s0.52,0.35,0.68,0.6
			c0.16,0.25,0.24,0.56,0.24,0.93c0,0.62-0.23,1.09-0.68,1.43C111.29,53.21,110.67,53.38,109.87,53.38z"/>
		<path class="st1" d="M119.28,53.38c-0.71,0-1.3-0.15-1.78-0.46c-0.48-0.3-0.84-0.72-1.08-1.25s-0.36-1.15-0.36-1.83
			s0.13-1.3,0.39-1.83c0.26-0.53,0.62-0.95,1.1-1.26c0.47-0.31,1.04-0.46,1.69-0.46c0.55,0,1.06,0.11,1.51,0.32
			c0.46,0.22,0.82,0.55,1.08,0.99c0.27,0.45,0.4,1.01,0.4,1.69c0,0.16,0,0.31-0.01,0.46c-0.01,0.15-0.02,0.27-0.04,0.36h-5.59v-0.73
			h4.86l-0.17,0.18c0.05-0.58-0.01-1.05-0.17-1.4c-0.16-0.35-0.39-0.61-0.72-0.78c-0.32-0.17-0.71-0.25-1.17-0.25
			c-0.82,0-1.39,0.23-1.72,0.68s-0.5,1.07-0.5,1.86v0.25c0,0.53,0.07,0.99,0.22,1.38c0.15,0.39,0.38,0.68,0.7,0.89
			c0.32,0.21,0.77,0.31,1.35,0.31c0.68,0,1.17-0.14,1.47-0.42c0.3-0.28,0.45-0.62,0.45-1.03v-0.1h0.99v0.12
			c0,0.43-0.12,0.82-0.37,1.17c-0.25,0.35-0.59,0.62-1.03,0.83C120.36,53.28,119.85,53.38,119.28,53.38z"/>
		<path class="st1" d="M124.5,53.24h-0.99v-6.81h0.9v2.18l0.1,0.07V53.24z M129.43,53.24h-0.98v-3.97c0-0.74-0.14-1.27-0.42-1.61
			c-0.28-0.34-0.77-0.5-1.46-0.5c-0.45,0-0.83,0.07-1.13,0.22c-0.3,0.15-0.54,0.38-0.7,0.7c-0.17,0.32-0.25,0.73-0.25,1.24
			l-0.26,0.01l-0.04-1.49h0.26c0.08-0.24,0.23-0.48,0.43-0.71c0.21-0.23,0.47-0.43,0.8-0.59c0.33-0.16,0.72-0.24,1.19-0.24
			c0.59,0,1.07,0.12,1.44,0.35c0.37,0.24,0.65,0.56,0.83,0.97s0.28,0.9,0.28,1.45V53.24z"/>
		<path class="st1" d="M134.55,47.29h-4.3v-0.86h4.3V47.29z M133.39,53.24c-0.62,0-1.12-0.14-1.47-0.43
			c-0.35-0.29-0.53-0.79-0.53-1.5v-4.76l0.26-1.86h0.73v6.68c0,0.41,0.1,0.67,0.3,0.79s0.52,0.19,0.97,0.19h0.9v0.8
			c-0.12,0.02-0.28,0.04-0.48,0.06C133.87,53.23,133.64,53.24,133.39,53.24z"/>
		<path class="st1" d="M136.54,53.24h-0.99v-6.9h0.9v1.88l0.1,0.07V53.24z M136.54,48.73h-0.34v-1.25h0.32
			c0.11-0.31,0.33-0.59,0.65-0.83c0.32-0.24,0.74-0.36,1.24-0.36c0.47,0,0.85,0.1,1.14,0.3s0.5,0.47,0.62,0.79s0.19,0.69,0.19,1.1
			v0.37h-0.98v-0.23c0-0.53-0.1-0.91-0.3-1.13c-0.2-0.22-0.54-0.33-1.03-0.33c-0.53,0-0.92,0.12-1.15,0.37
			C136.65,47.78,136.54,48.18,136.54,48.73z"/>
		<path class="st1" d="M144.29,53.38c-0.71,0-1.3-0.15-1.78-0.46c-0.48-0.3-0.84-0.72-1.08-1.25c-0.24-0.53-0.36-1.15-0.36-1.83
			s0.13-1.3,0.39-1.83c0.26-0.53,0.62-0.95,1.1-1.26c0.47-0.31,1.04-0.46,1.69-0.46c0.55,0,1.06,0.11,1.51,0.32
			c0.46,0.22,0.82,0.55,1.08,0.99c0.27,0.45,0.4,1.01,0.4,1.69c0,0.16,0,0.31-0.01,0.46c-0.01,0.15-0.02,0.27-0.04,0.36h-5.59v-0.73
			h4.86l-0.17,0.18c0.05-0.58-0.01-1.05-0.17-1.4c-0.16-0.35-0.4-0.61-0.72-0.78c-0.32-0.17-0.71-0.25-1.17-0.25
			c-0.82,0-1.39,0.23-1.72,0.68s-0.5,1.07-0.5,1.86v0.25c0,0.53,0.07,0.99,0.22,1.38c0.15,0.39,0.38,0.68,0.7,0.89
			c0.32,0.21,0.77,0.31,1.35,0.31c0.68,0,1.17-0.14,1.47-0.42c0.3-0.28,0.45-0.62,0.45-1.03v-0.1h0.99v0.12
			c0,0.43-0.12,0.82-0.37,1.17c-0.25,0.35-0.59,0.62-1.03,0.83C145.36,53.28,144.86,53.38,144.29,53.38z"/>
		<path class="st1" d="M149.5,55.64h-0.98v-9.21h0.88v1.77l0.1,0.18V55.64z M151.97,53.38c-0.65,0-1.19-0.14-1.61-0.43
			c-0.42-0.29-0.71-0.62-0.86-1h-0.3l0.04-1.52h0.26c0,0.46,0.09,0.85,0.26,1.16s0.43,0.55,0.76,0.7c0.33,0.16,0.72,0.24,1.16,0.24
			c0.33,0,0.63-0.04,0.9-0.12c0.27-0.08,0.49-0.22,0.68-0.43s0.33-0.48,0.43-0.83c0.1-0.35,0.14-0.79,0.14-1.3
			c0-0.52-0.05-0.96-0.14-1.3c-0.1-0.34-0.24-0.62-0.42-0.82c-0.18-0.2-0.41-0.35-0.67-0.44s-0.57-0.14-0.92-0.14
			c-0.44,0-0.83,0.08-1.16,0.25c-0.33,0.17-0.58,0.4-0.76,0.71c-0.17,0.31-0.26,0.69-0.26,1.15h-0.26l-0.04-1.5h0.25
			c0.16-0.42,0.43-0.77,0.83-1.04s0.93-0.41,1.58-0.41c0.95,0,1.68,0.32,2.2,0.97s0.78,1.51,0.78,2.57c0,1.08-0.25,1.94-0.74,2.58
			C153.61,53.06,152.9,53.38,151.97,53.38z"/>
		<path class="st1" d="M157.03,53.24h-0.99v-6.9h0.9v1.88l0.1,0.07V53.24z M157.03,48.73h-0.34v-1.25h0.32
			c0.11-0.31,0.33-0.59,0.65-0.83c0.32-0.24,0.74-0.36,1.24-0.36c0.47,0,0.85,0.1,1.14,0.3s0.5,0.47,0.62,0.79s0.19,0.69,0.19,1.1
			v0.37h-0.98v-0.23c0-0.53-0.1-0.91-0.3-1.13c-0.2-0.22-0.54-0.33-1.03-0.33c-0.53,0-0.92,0.12-1.15,0.37
			C157.15,47.78,157.03,48.18,157.03,48.73z"/>
		<path class="st1" d="M162.7,45.52h-0.98V44h0.98V45.52z M162.7,53.24h-0.98v-6.9h0.98V53.24z"/>
		<path class="st1" d="M166.92,53.38c-0.93,0-1.64-0.2-2.13-0.59c-0.49-0.4-0.74-0.99-0.74-1.79v-0.03h0.95v0.17
			c0,0.31,0.05,0.57,0.17,0.78s0.3,0.37,0.58,0.48c0.28,0.11,0.67,0.17,1.19,0.17c0.42,0,0.75-0.04,0.98-0.12
			c0.23-0.08,0.39-0.2,0.48-0.36c0.09-0.16,0.14-0.35,0.14-0.58c0-0.36-0.11-0.61-0.34-0.77c-0.22-0.15-0.59-0.27-1.11-0.37
			l-1.14-0.19c-0.37-0.07-0.69-0.18-0.98-0.32s-0.51-0.34-0.68-0.6c-0.17-0.26-0.25-0.59-0.25-0.99c0-0.59,0.23-1.06,0.7-1.42
			c0.46-0.36,1.1-0.54,1.9-0.54c0.54,0,1.01,0.09,1.41,0.26s0.72,0.43,0.95,0.78s0.35,0.77,0.35,1.29v0.07h-0.95v-0.12
			c0-0.27-0.05-0.51-0.14-0.72c-0.09-0.22-0.27-0.39-0.52-0.52s-0.62-0.19-1.09-0.19c-0.64,0-1.08,0.09-1.31,0.28
			c-0.23,0.19-0.35,0.46-0.35,0.82c0,0.34,0.1,0.59,0.3,0.74c0.2,0.15,0.56,0.28,1.06,0.38l1.16,0.21c0.4,0.08,0.75,0.2,1.04,0.34
			c0.29,0.15,0.51,0.35,0.68,0.6c0.16,0.25,0.24,0.56,0.24,0.93c0,0.62-0.23,1.09-0.68,1.43C168.34,53.21,167.72,53.38,166.92,53.38
			z"/>
		<path class="st1" d="M173.78,53.38c-0.71,0-1.3-0.15-1.78-0.46c-0.48-0.3-0.84-0.72-1.08-1.25c-0.24-0.53-0.36-1.15-0.36-1.83
			s0.13-1.3,0.39-1.83c0.26-0.53,0.62-0.95,1.1-1.26c0.47-0.31,1.04-0.46,1.69-0.46c0.55,0,1.06,0.11,1.51,0.32
			c0.46,0.22,0.82,0.55,1.08,0.99c0.27,0.45,0.4,1.01,0.4,1.69c0,0.16,0,0.31-0.01,0.46c-0.01,0.15-0.02,0.27-0.04,0.36h-5.59v-0.73
			h4.86l-0.17,0.18c0.05-0.58-0.01-1.05-0.17-1.4c-0.16-0.35-0.4-0.61-0.72-0.78c-0.32-0.17-0.71-0.25-1.17-0.25
			c-0.82,0-1.39,0.23-1.72,0.68s-0.5,1.07-0.5,1.86v0.25c0,0.53,0.07,0.99,0.22,1.38c0.15,0.39,0.38,0.68,0.7,0.89
			c0.32,0.21,0.77,0.31,1.35,0.31c0.68,0,1.17-0.14,1.47-0.42c0.3-0.28,0.45-0.62,0.45-1.03v-0.1h0.99v0.12
			c0,0.43-0.12,0.82-0.37,1.17c-0.25,0.35-0.59,0.62-1.03,0.83C174.85,53.28,174.35,53.38,173.78,53.38z"/>
		<path class="st1" d="M180.83,53.38c-0.93,0-1.64-0.2-2.13-0.59c-0.49-0.4-0.74-0.99-0.74-1.79v-0.03h0.95v0.17
			c0,0.31,0.05,0.57,0.17,0.78s0.3,0.37,0.58,0.48c0.28,0.11,0.67,0.17,1.19,0.17c0.42,0,0.75-0.04,0.98-0.12
			c0.23-0.08,0.39-0.2,0.48-0.36c0.09-0.16,0.14-0.35,0.14-0.58c0-0.36-0.11-0.61-0.34-0.77c-0.22-0.15-0.59-0.27-1.11-0.37
			l-1.14-0.19c-0.37-0.07-0.69-0.18-0.98-0.32s-0.51-0.34-0.68-0.6c-0.17-0.26-0.25-0.59-0.25-0.99c0-0.59,0.23-1.06,0.7-1.42
			c0.46-0.36,1.1-0.54,1.9-0.54c0.54,0,1.01,0.09,1.41,0.26s0.72,0.43,0.95,0.78s0.35,0.77,0.35,1.29v0.07h-0.95v-0.12
			c0-0.27-0.05-0.51-0.14-0.72c-0.09-0.22-0.27-0.39-0.52-0.52s-0.62-0.19-1.09-0.19c-0.64,0-1.08,0.09-1.31,0.28
			c-0.23,0.19-0.35,0.46-0.35,0.82c0,0.34,0.1,0.59,0.3,0.74c0.2,0.15,0.56,0.28,1.06,0.38l1.16,0.21c0.4,0.08,0.75,0.2,1.04,0.34
			c0.29,0.15,0.51,0.35,0.68,0.6c0.16,0.25,0.24,0.56,0.24,0.93c0,0.62-0.23,1.09-0.68,1.43C182.24,53.21,181.62,53.38,180.83,53.38
			z"/>
	</g>
	<g>
		<path class="st1" d="M17.58,8.52v3.72h-0.23c-0.51-1.3-1.44-2.32-2.77-3.06c-1.33-0.74-2.9-1.11-4.72-1.11
			c-3.21,0-5.66,0.95-7.35,2.83c-1.69,1.89-2.54,4.41-2.54,7.55c0,3.21,0.84,5.75,2.52,7.64s4.06,2.83,7.14,2.83
			c1.84,0,3.4-0.39,4.67-1.18c1.27-0.79,2.16-1.72,2.68-2.81h0.18v4.49c0,1.39-0.15,2.48-0.45,3.27c-0.3,0.79-0.85,1.34-1.63,1.68
			c-0.79,0.33-1.92,0.5-3.4,0.5c-1.51,0-2.68-0.13-3.49-0.38c-0.82-0.26-1.38-0.69-1.7-1.29c-0.32-0.61-0.48-1.41-0.48-2.4H1.16
			c0,1.78,0.42,3.31,1.25,4.58c0.83,1.27,2.03,2.23,3.61,2.88c1.57,0.65,3.42,0.97,5.53,0.97c2.18,0,4.05-0.36,5.62-1.07
			c1.57-0.71,2.77-1.79,3.61-3.24c0.83-1.45,1.25-3.28,1.25-5.49V8.52H17.58z M16.42,22.31c-0.5,0.85-1.21,1.47-2.13,1.86
			c-0.92,0.39-2,0.59-3.24,0.59c-1.03,0-1.94-0.11-2.74-0.34c-0.8-0.23-1.45-0.58-1.95-1.07c-0.5-0.48-0.87-1.12-1.11-1.91
			c-0.24-0.79-0.36-1.78-0.36-2.99c0-1.51,0.21-2.73,0.64-3.65c0.42-0.92,1.08-1.59,1.97-2c0.89-0.41,2.05-0.61,3.47-0.61
			c1.24,0,2.33,0.2,3.27,0.61c0.94,0.41,1.66,1.02,2.18,1.84c0.51,0.82,0.77,1.86,0.77,3.13v1.45
			C17.17,20.44,16.92,21.46,16.42,22.31z"/>
		<path class="st1" d="M38.12,31.52c-2.3,0-4.29-0.49-5.96-1.47c-1.68-0.98-2.98-2.36-3.9-4.13c-0.92-1.77-1.38-3.82-1.38-6.15
			c0-2.33,0.46-4.37,1.38-6.12c0.92-1.75,2.22-3.12,3.9-4.11c1.68-0.98,3.67-1.47,5.96-1.47c2.3,0,4.27,0.49,5.92,1.47
			c1.65,0.98,2.93,2.35,3.83,4.11s1.36,3.79,1.36,6.12c0,2.33-0.45,4.38-1.36,6.15c-0.91,1.77-2.19,3.15-3.83,4.13
			C42.39,31.03,40.42,31.52,38.12,31.52z M38.12,27.16c2.39,0,4.04-0.6,4.97-1.79c0.92-1.19,1.38-3.06,1.38-5.6s-0.46-4.41-1.38-5.6
			c-0.92-1.19-2.58-1.79-4.97-1.79c-2.39,0-4.05,0.6-4.99,1.79c-0.94,1.2-1.41,3.06-1.41,5.6s0.47,4.41,1.41,5.6
			C34.07,26.57,35.73,27.16,38.12,27.16z"/>
		<path class="st1" d="M64.57,31.52c-2.3,0-4.29-0.49-5.96-1.47s-2.98-2.36-3.9-4.13c-0.92-1.77-1.38-3.82-1.38-6.15
			c0-2.33,0.46-4.37,1.38-6.12c0.92-1.75,2.22-3.12,3.9-4.11c1.68-0.98,3.67-1.47,5.96-1.47c2.3,0,4.27,0.49,5.92,1.47
			c1.65,0.98,2.93,2.35,3.83,4.11s1.36,3.79,1.36,6.12c0,2.33-0.45,4.38-1.36,6.15c-0.91,1.77-2.19,3.15-3.83,4.13
			C68.84,31.03,66.87,31.52,64.57,31.52z M64.57,27.16c2.39,0,4.04-0.6,4.97-1.79c0.92-1.19,1.38-3.06,1.38-5.6s-0.46-4.41-1.38-5.6
			c-0.92-1.19-2.58-1.79-4.97-1.79c-2.39,0-4.05,0.6-4.99,1.79c-0.94,1.2-1.41,3.06-1.41,5.6s0.47,4.41,1.41,5.6
			C60.52,26.57,62.18,27.16,64.57,27.16z"/>
		<path class="st1" d="M96.95,0.67v11.34h-0.14c-0.48-1.03-1.34-1.94-2.56-2.74c-1.23-0.8-2.83-1.2-4.83-1.2
			c-3.11,0-5.5,1.06-7.17,3.17c-1.66,2.12-2.49,4.96-2.49,8.53c0,3.57,0.85,6.42,2.56,8.55c1.71,2.13,4.17,3.2,7.37,3.2
			c1.93,0,3.53-0.37,4.79-1.11c1.25-0.74,2.14-1.78,2.65-3.11h0.23v3.76h4.45V0.67H96.95z M94.14,26.76
			c-0.91,0.39-2.03,0.59-3.36,0.59c-1.06,0-1.98-0.14-2.77-0.41c-0.79-0.27-1.43-0.7-1.93-1.29c-0.5-0.59-0.86-1.37-1.09-2.34
			c-0.23-0.97-0.34-2.15-0.34-3.54c0-1.39,0.11-2.57,0.34-3.54c0.23-0.97,0.59-1.74,1.09-2.31c0.5-0.57,1.14-1,1.93-1.27
			c0.79-0.27,1.71-0.41,2.77-0.41c1.33,0,2.45,0.2,3.36,0.59c0.91,0.39,1.6,1,2.09,1.81c0.48,0.82,0.73,1.86,0.73,3.13v4.04
			c0,1.24-0.24,2.28-0.73,3.11C95.74,25.75,95.05,26.36,94.14,26.76z"/>
		<path class="st1" d="M124.17,5.19c0.51-0.44,1.32-0.66,2.4-0.66h2.72V0.67c-0.3,0-0.6,0-0.91,0s-0.6,0-0.91,0
			c-1.9,0-3.52,0.3-4.85,0.91c-1.33,0.61-2.32,1.5-2.97,2.7c-0.63,1.15-0.94,2.57-0.97,4.24h-3.32v4.08h3.31v18.46h4.85V12.6h5.76
			V8.52h-5.9V7.3C123.4,6.33,123.65,5.63,124.17,5.19z"/>
		<path class="st1" d="M152.2,13.65c-0.91-1.75-2.19-3.12-3.83-4.11c-1.65-0.98-3.62-1.47-5.92-1.47c-2.3,0-4.29,0.49-5.96,1.47
			c-1.68,0.98-2.98,2.35-3.9,4.11c-0.92,1.75-1.38,3.79-1.38,6.12c0,2.33,0.46,4.38,1.38,6.15c0.92,1.77,2.22,3.15,3.9,4.13
			c1.68,0.98,3.67,1.47,5.96,1.47c2.3,0,4.27-0.49,5.92-1.47c1.65-0.98,2.93-2.36,3.83-4.13c0.91-1.77,1.36-3.82,1.36-6.15
			C153.56,17.44,153.11,15.4,152.2,13.65z M147.42,25.37c-0.92,1.19-2.58,1.79-4.97,1.79c-2.39,0-4.05-0.6-4.99-1.79
			s-1.41-3.06-1.41-5.6s0.47-4.41,1.41-5.6c0.94-1.19,2.6-1.79,4.99-1.79c2.39,0,4.04,0.6,4.97,1.79c0.92,1.2,1.38,3.06,1.38,5.6
			S148.34,24.18,147.42,25.37z"/>
		<path class="st1" d="M168.89,31.52c-2.3,0-4.29-0.49-5.96-1.47c-1.68-0.98-2.98-2.36-3.9-4.13c-0.92-1.77-1.38-3.82-1.38-6.15
			c0-2.33,0.46-4.37,1.38-6.12c0.92-1.75,2.22-3.12,3.9-4.11c1.68-0.98,3.67-1.47,5.96-1.47c2.3,0,4.27,0.49,5.92,1.47
			c1.65,0.98,2.93,2.35,3.83,4.11s1.36,3.79,1.36,6.12c0,2.33-0.45,4.38-1.36,6.15c-0.91,1.77-2.19,3.15-3.83,4.13
			C173.16,31.03,171.19,31.52,168.89,31.52z M168.89,27.16c2.39,0,4.04-0.6,4.97-1.79c0.92-1.19,1.38-3.06,1.38-5.6
			s-0.46-4.41-1.38-5.6c-0.92-1.19-2.58-1.79-4.97-1.79c-2.39,0-4.05,0.6-4.99,1.79c-0.94,1.2-1.41,3.06-1.41,5.6
			s0.47,4.41,1.41,5.6S166.5,27.16,168.89,27.16z"/>
		<path class="st1" d="M201.28,0.67v11.34h-0.14c-0.48-1.03-1.34-1.94-2.56-2.74c-1.23-0.8-2.83-1.2-4.83-1.2
			c-3.12,0-5.5,1.06-7.17,3.17c-1.66,2.12-2.49,4.96-2.49,8.53c0,3.57,0.85,6.42,2.56,8.55c1.71,2.13,4.17,3.2,7.37,3.2
			c1.93,0,3.53-0.37,4.79-1.11c1.25-0.74,2.14-1.78,2.65-3.11h0.23v3.76h4.45V0.67H201.28z M198.47,26.76
			c-0.91,0.39-2.03,0.59-3.36,0.59c-1.06,0-1.98-0.14-2.77-0.41c-0.79-0.27-1.43-0.7-1.93-1.29s-0.86-1.37-1.09-2.34
			c-0.23-0.97-0.34-2.15-0.34-3.54c0-1.39,0.11-2.57,0.34-3.54c0.23-0.97,0.59-1.74,1.09-2.31s1.14-1,1.93-1.27
			c0.79-0.27,1.71-0.41,2.77-0.41c1.33,0,2.45,0.2,3.36,0.59c0.91,0.39,1.6,1,2.09,1.81c0.48,0.82,0.73,1.86,0.73,3.13v4.04
			c0,1.24-0.24,2.28-0.73,3.11C200.07,25.75,199.37,26.36,198.47,26.76z"/>
		<g>
			<path class="st1" d="M169.5,7.11c0.05,0.59,0.01,1.18,0.01,1.93h-1.4c0.02-2.83-0.11-5.45-2.2-7.52
				c-0.56-0.55-0.02-0.95,0.25-1.23c0.31-0.31,0.49-0.04,0.66,0.13c0.85,0.82,1.46,1.74,1.91,2.81c0.07,0.18,0.15,0.37,0.25,0.61
				c1.09-1.46,2.36-2.6,4.04-3.24c2.18-0.84,4.34-0.79,6.52,0.02c0.52,0.2,0.55,0.39,0.35,0.87c-1.64,3.96-5.89,6.16-9.87,5.2
				C169.65,6.6,169.47,6.65,169.5,7.11z"/>
		</g>
	</g>
</g>
</svg>
